<mxfile host="Electron" agent="Mozilla/5.0 (Windows NT 10.0; Win64; x64) AppleWebKit/537.36 (KHTML, like Gecko) draw.io/24.7.8 Chrome/128.0.6613.36 Electron/32.0.1 Safari/537.36" version="24.7.8">
  <diagram name="Page-1" id="k5o-RyDuy3EwxvzkgmdO">
    <mxGraphModel dx="744" dy="876" grid="1" gridSize="10" guides="1" tooltips="1" connect="1" arrows="1" fold="1" page="1" pageScale="1" pageWidth="850" pageHeight="1100" math="0" shadow="0">
      <root>
        <mxCell id="0" />
        <mxCell id="1" parent="0" />
        <mxCell id="sk918nPW4FzcZUquyqcl-8" style="edgeStyle=orthogonalEdgeStyle;rounded=0;orthogonalLoop=1;jettySize=auto;html=1;exitX=0.25;exitY=1;exitDx=0;exitDy=0;" edge="1" parent="1" source="sk918nPW4FzcZUquyqcl-1">
          <mxGeometry relative="1" as="geometry">
            <mxPoint x="390.14814814814804" y="409.9999999999999" as="targetPoint" />
          </mxGeometry>
        </mxCell>
        <mxCell id="sk918nPW4FzcZUquyqcl-13" style="edgeStyle=orthogonalEdgeStyle;rounded=0;orthogonalLoop=1;jettySize=auto;html=1;exitX=1;exitY=0.25;exitDx=0;exitDy=0;" edge="1" parent="1" source="sk918nPW4FzcZUquyqcl-1">
          <mxGeometry relative="1" as="geometry">
            <mxPoint x="540" y="274.8148148148148" as="targetPoint" />
          </mxGeometry>
        </mxCell>
        <mxCell id="sk918nPW4FzcZUquyqcl-17" style="edgeStyle=orthogonalEdgeStyle;rounded=0;orthogonalLoop=1;jettySize=auto;html=1;exitX=0.75;exitY=1;exitDx=0;exitDy=0;" edge="1" parent="1" source="sk918nPW4FzcZUquyqcl-1">
          <mxGeometry relative="1" as="geometry">
            <mxPoint x="450.1578947368422" y="410" as="targetPoint" />
          </mxGeometry>
        </mxCell>
        <mxCell id="sk918nPW4FzcZUquyqcl-1" value="" style="rounded=0;whiteSpace=wrap;html=1;" vertex="1" parent="1">
          <mxGeometry x="360" y="250" width="120" height="100" as="geometry" />
        </mxCell>
        <mxCell id="sk918nPW4FzcZUquyqcl-2" value="" style="rounded=0;whiteSpace=wrap;html=1;" vertex="1" parent="1">
          <mxGeometry x="405" y="290" width="30" height="20" as="geometry" />
        </mxCell>
        <mxCell id="sk918nPW4FzcZUquyqcl-4" value="O/P" style="rounded=0;whiteSpace=wrap;html=1;" vertex="1" parent="1">
          <mxGeometry x="160" y="250" width="60" height="30" as="geometry" />
        </mxCell>
        <mxCell id="sk918nPW4FzcZUquyqcl-7" style="edgeStyle=orthogonalEdgeStyle;rounded=0;orthogonalLoop=1;jettySize=auto;html=1;exitX=1;exitY=0.5;exitDx=0;exitDy=0;entryX=0;entryY=0.75;entryDx=0;entryDy=0;" edge="1" parent="1" source="sk918nPW4FzcZUquyqcl-5" target="sk918nPW4FzcZUquyqcl-1">
          <mxGeometry relative="1" as="geometry" />
        </mxCell>
        <mxCell id="sk918nPW4FzcZUquyqcl-5" value="" style="rounded=0;whiteSpace=wrap;html=1;" vertex="1" parent="1">
          <mxGeometry x="160" y="310" width="60" height="30" as="geometry" />
        </mxCell>
        <mxCell id="sk918nPW4FzcZUquyqcl-6" style="edgeStyle=orthogonalEdgeStyle;rounded=0;orthogonalLoop=1;jettySize=auto;html=1;exitX=1;exitY=0.5;exitDx=0;exitDy=0;entryX=0;entryY=0.152;entryDx=0;entryDy=0;entryPerimeter=0;" edge="1" parent="1" source="sk918nPW4FzcZUquyqcl-4" target="sk918nPW4FzcZUquyqcl-1">
          <mxGeometry relative="1" as="geometry" />
        </mxCell>
        <mxCell id="sk918nPW4FzcZUquyqcl-9" value="Dumb Terminals" style="text;html=1;align=center;verticalAlign=middle;resizable=0;points=[];autosize=1;strokeColor=none;fillColor=none;" vertex="1" parent="1">
          <mxGeometry x="135" y="228" width="110" height="30" as="geometry" />
        </mxCell>
        <mxCell id="sk918nPW4FzcZUquyqcl-10" value="Mainframe (1980)" style="text;html=1;align=center;verticalAlign=middle;resizable=0;points=[];autosize=1;strokeColor=none;fillColor=none;" vertex="1" parent="1">
          <mxGeometry x="360" y="220" width="120" height="30" as="geometry" />
        </mxCell>
        <mxCell id="sk918nPW4FzcZUquyqcl-15" style="edgeStyle=orthogonalEdgeStyle;rounded=0;orthogonalLoop=1;jettySize=auto;html=1;exitX=1;exitY=0.5;exitDx=0;exitDy=0;" edge="1" parent="1" source="sk918nPW4FzcZUquyqcl-11">
          <mxGeometry relative="1" as="geometry">
            <mxPoint x="700" y="271.9473684210527" as="targetPoint" />
          </mxGeometry>
        </mxCell>
        <mxCell id="sk918nPW4FzcZUquyqcl-11" value="&lt;font style=&quot;font-size: 10px;&quot;&gt;Modem&lt;/font&gt;" style="rounded=0;whiteSpace=wrap;html=1;" vertex="1" parent="1">
          <mxGeometry x="550" y="258" width="50" height="28" as="geometry" />
        </mxCell>
        <mxCell id="sk918nPW4FzcZUquyqcl-12" value="" style="rounded=0;whiteSpace=wrap;html=1;" vertex="1" parent="1">
          <mxGeometry x="710" y="260" width="50" height="26" as="geometry" />
        </mxCell>
        <mxCell id="sk918nPW4FzcZUquyqcl-19" value="&lt;font style=&quot;font-size: 19px;&quot;&gt;Centralized Computation&lt;/font&gt;" style="text;html=1;align=center;verticalAlign=middle;resizable=0;points=[];autosize=1;strokeColor=none;fillColor=none;" vertex="1" parent="1">
          <mxGeometry x="285" y="453" width="230" height="40" as="geometry" />
        </mxCell>
        <mxCell id="sk918nPW4FzcZUquyqcl-20" value="" style="endArrow=none;html=1;rounded=0;exitX=0.5;exitY=1;exitDx=0;exitDy=0;entryX=0.5;entryY=0;entryDx=0;entryDy=0;" edge="1" parent="1" source="sk918nPW4FzcZUquyqcl-12" target="sk918nPW4FzcZUquyqcl-12">
          <mxGeometry width="50" height="50" relative="1" as="geometry">
            <mxPoint x="670" y="360" as="sourcePoint" />
            <mxPoint x="720" y="310" as="targetPoint" />
          </mxGeometry>
        </mxCell>
        <mxCell id="sk918nPW4FzcZUquyqcl-21" value="PAD" style="text;html=1;align=center;verticalAlign=middle;resizable=0;points=[];autosize=1;strokeColor=none;fillColor=none;" vertex="1" parent="1">
          <mxGeometry x="710" y="238" width="50" height="30" as="geometry" />
        </mxCell>
        <mxCell id="sk918nPW4FzcZUquyqcl-22" value="" style="endArrow=none;html=1;rounded=0;" edge="1" parent="1">
          <mxGeometry width="50" height="50" relative="1" as="geometry">
            <mxPoint x="160" y="760" as="sourcePoint" />
            <mxPoint x="690" y="760" as="targetPoint" />
          </mxGeometry>
        </mxCell>
        <mxCell id="sk918nPW4FzcZUquyqcl-28" style="edgeStyle=orthogonalEdgeStyle;rounded=0;orthogonalLoop=1;jettySize=auto;html=1;exitX=0.5;exitY=1;exitDx=0;exitDy=0;" edge="1" parent="1" source="sk918nPW4FzcZUquyqcl-23">
          <mxGeometry relative="1" as="geometry">
            <mxPoint x="224.9354838709677" y="760" as="targetPoint" />
          </mxGeometry>
        </mxCell>
        <mxCell id="sk918nPW4FzcZUquyqcl-23" value="" style="rounded=0;whiteSpace=wrap;html=1;" vertex="1" parent="1">
          <mxGeometry x="165" y="650" width="120" height="60" as="geometry" />
        </mxCell>
        <mxCell id="sk918nPW4FzcZUquyqcl-29" style="edgeStyle=orthogonalEdgeStyle;rounded=0;orthogonalLoop=1;jettySize=auto;html=1;" edge="1" parent="1" source="sk918nPW4FzcZUquyqcl-24">
          <mxGeometry relative="1" as="geometry">
            <mxPoint x="355" y="760" as="targetPoint" />
          </mxGeometry>
        </mxCell>
        <mxCell id="sk918nPW4FzcZUquyqcl-24" value="" style="rounded=0;whiteSpace=wrap;html=1;" vertex="1" parent="1">
          <mxGeometry x="300" y="650" width="110" height="60" as="geometry" />
        </mxCell>
        <mxCell id="sk918nPW4FzcZUquyqcl-25" value="" style="rounded=0;whiteSpace=wrap;html=1;" vertex="1" parent="1">
          <mxGeometry x="430" y="650" width="120" height="60" as="geometry" />
        </mxCell>
        <mxCell id="sk918nPW4FzcZUquyqcl-26" value="" style="rounded=0;whiteSpace=wrap;html=1;" vertex="1" parent="1">
          <mxGeometry x="570" y="650" width="120" height="60" as="geometry" />
        </mxCell>
      </root>
    </mxGraphModel>
  </diagram>
</mxfile>
